<svg width="24" height="24" viewBox="0 0 24 24" fill="none" xmlns="http://www.w3.org/2000/svg">
<path fill-rule="evenodd" clip-rule="evenodd" d="M20.3394 12.4684C20.3394 11.999 19.9588 11.6184 19.4894 11.6184L6.21193 11.6184C5.74249 11.6184 5.36193 11.999 5.36193 12.4684C5.36193 12.9378 5.74248 13.3184 6.21193 13.3184L19.4894 13.3184C19.9588 13.3184 20.3394 12.9379 20.3394 12.4684Z" fill="#2E2E2E"/>
<path fill-rule="evenodd" clip-rule="evenodd" d="M10.1291 6.88839C9.79717 6.55645 9.25898 6.55645 8.92704 6.88839L4.63218 11.1832C3.90971 11.9057 3.90971 13.0771 4.63218 13.7995L8.90735 18.0747C9.2393 18.4067 9.77749 18.4067 10.1094 18.0747C10.4414 17.7428 10.4414 17.2046 10.1094 16.8726L5.83426 12.5975C5.77569 12.5389 5.77569 12.4439 5.83426 12.3853L10.1291 8.09048C10.4611 7.75853 10.4611 7.22034 10.1291 6.88839Z" fill="#2E2E2E"/>
</svg>
