<svg id="Layer_1" data-name="Layer 1" xmlns="http://www.w3.org/2000/svg" viewBox="0 0 807.29 101.28"><defs><style>.cls-1{fill:#3445df;}.cls-2{fill:#ff4343;}</style></defs><path class="cls-1" d="M196.36,646.19V554.27a1.31,1.31,0,0,1,1.3-1.31h33.41a1.3,1.3,0,0,1,1.24.92l17.55,56.24a1.3,1.3,0,0,0,1.24.91h.11a1.31,1.31,0,0,0,1.25-.91L270,553.88a1.31,1.31,0,0,1,1.25-.92h33.52a1.31,1.31,0,0,1,1.3,1.31v91.92a1.3,1.3,0,0,1-1.3,1.3h-24.4a1.3,1.3,0,0,1-1.3-1.3V601.87a1.31,1.31,0,0,0-1.3-1.31h0a1.3,1.3,0,0,0-1.24.91l-14.39,45.12a1.31,1.31,0,0,1-1.24.9H241.53a1.31,1.31,0,0,1-1.24-.9L225.9,601.47a1.3,1.3,0,0,0-1.24-.91h-.11a1.31,1.31,0,0,0-1.3,1.31v44.32a1.3,1.3,0,0,1-1.3,1.3H197.66A1.3,1.3,0,0,1,196.36,646.19Z" transform="translate(-196.36 -549.36)"/><path class="cls-1" d="M415.18,554.93l-37.47,62.66a1.28,1.28,0,0,0-.18.66v27.94a1.3,1.3,0,0,1-1.3,1.3H350.59a1.31,1.31,0,0,1-1.31-1.3V618.14a1.35,1.35,0,0,0-.18-.67l-37.35-62.54a1.3,1.3,0,0,1,1.12-2h26.66a1.3,1.3,0,0,1,1.13.65l21.19,36.52a1.3,1.3,0,0,0,1.12.65h1a1.31,1.31,0,0,0,1.13-.65l21.08-36.51a1.29,1.29,0,0,1,1.12-.66h26.78A1.31,1.31,0,0,1,415.18,554.93Z" transform="translate(-196.36 -549.36)"/><path class="cls-1" d="M683.78,636.74q-14.58,13.9-38.43,13.9t-38.43-13.9q-14.58-13.89-14.57-36.51t14.57-36.52q14.57-13.89,38.43-13.9t38.43,13.9q14.57,13.9,14.57,36.52T683.78,636.74Zm-56.27-17.61a26,26,0,0,0,35.68,0q7.14-7.08,7.14-18.9t-7.14-18.91a26,26,0,0,0-35.68,0q-7.14,7.09-7.14,18.91T627.51,619.13Z" transform="translate(-196.36 -549.36)"/><path class="cls-1" d="M798.66,647.49H773.85a1.3,1.3,0,0,1-1.15-.69l-13-24.28a1.32,1.32,0,0,0-1.15-.69h-23.8a1.3,1.3,0,0,0-1.3,1.3v23.06a1.3,1.3,0,0,1-1.3,1.3H706.51a1.3,1.3,0,0,1-1.3-1.3V554.27a1.31,1.31,0,0,1,1.3-1.31h51.25q19.69,0,30,8.84t10.3,26.5q0,17.7-13.53,27a1.31,1.31,0,0,0-.42,1.7l15.7,28.54A1.3,1.3,0,0,1,798.66,647.49Zm-65.2-69.71v21.48a1.3,1.3,0,0,0,1.3,1.3H756q6.76,0,10.3-3.09t3.55-9q0-5.85-3.55-8.94t-10.3-3.1h-21.2A1.3,1.3,0,0,0,733.46,577.78Z" transform="translate(-196.36 -549.36)"/><path class="cls-1" d="M853.75,553q13.85,0,24,3.49t16,10a41.81,41.81,0,0,1,8.72,14.91,64.63,64.63,0,0,1,0,37.7,41.23,41.23,0,0,1-8.72,14.85q-5.91,6.47-16,10t-24,3.54H808.92a1.3,1.3,0,0,1-1.3-1.3V554.27a1.31,1.31,0,0,1,1.3-1.31Zm-.11,70.79q11,0,17.16-5.85t6.13-17.67q0-11.82-6.13-17.67t-17.16-5.85H837.27A1.3,1.3,0,0,0,836,578v44.44a1.31,1.31,0,0,0,1.3,1.3Z" transform="translate(-196.36 -549.36)"/><path class="cls-1" d="M956.49,650.64q-23.85-.1-35.22-8.27-10.93-7.85-10.93-24.41a1.31,1.31,0,0,1,1.31-1.3h23a1.28,1.28,0,0,1,1.26,1.14q1.56,10.56,20.59,10.67,9.35.12,14.24-2.42t4.89-6.8q0-6.87-12.83-8.89l-11.92-1.92q-16.32-2.81-23-5.62-15.2-6.65-15.19-23.41,0-14.07,11.31-21.83t32.69-7.77a86.66,86.66,0,0,1,18.06,1.69,44.46,44.46,0,0,1,14,5.46A23.56,23.56,0,0,1,998,567.43a36.13,36.13,0,0,1,3,14.83,1.31,1.31,0,0,1-1.31,1.31H976.79a1.31,1.31,0,0,1-1.27-1Q972.91,572,956,572q-16.2,0-16.2,8.78,0,6.65,10.69,8.44l10,1.8c1.13.15,3,.45,5.69.9l6,1c1.35.23,3.26.6,5.74,1.13a47.91,47.91,0,0,1,5.79,1.52c1.39.49,3.13,1.14,5.23,2a18.63,18.63,0,0,1,4.9,2.64c1.16.94,2.46,2.1,3.88,3.49a14.63,14.63,0,0,1,3.21,4.44,33.56,33.56,0,0,1,1.86,5.52,28,28,0,0,1,.78,6.75q0,15-11.87,22.67T956.49,650.64Z" transform="translate(-196.36 -549.36)"/><path class="cls-1" d="M530.23,592.59,555,616.74a1.3,1.3,0,0,0,2.21-.93V554.24a1.3,1.3,0,0,1,1.3-1.3h24.29a1.3,1.3,0,0,1,1.3,1.3v91.93a1.3,1.3,0,0,1-1.3,1.3H549a1.31,1.31,0,0,1-1-.42l-18.2-19.91H529L510.5,647.05a1.27,1.27,0,0,1-.95.42H475.63a1.3,1.3,0,0,1-1.3-1.3V554.24a1.31,1.31,0,0,1,1.3-1.3h19.71a6,6,0,0,1,6,6v56.87a1.3,1.3,0,0,0,2.21.93l24.87-24.17A1.29,1.29,0,0,1,530.23,592.59Z" transform="translate(-196.36 -549.36)"/><path class="cls-2" d="M549.14,600.3l-19.29-18.78a.94.94,0,0,0-1.33,0l-19,18.64a.48.48,0,0,1-.81-.34v-50a.47.47,0,0,1,.48-.48h4l32.66,0a4,4,0,0,1,4,4V600A.4.4,0,0,1,549.14,600.3Z" transform="translate(-196.36 -549.36)"/><path class="cls-2" d="M513.16,549.36v12.32h-4.5v-5.56a7,7,0,0,0-4.85-6.65.06.06,0,0,1,0-.11Z" transform="translate(-196.36 -549.36)"/></svg>