<svg width="20" height="20" viewBox="0 0 20 20" fill="none" xmlns="http://www.w3.org/2000/svg">
<path fill-rule="evenodd" clip-rule="evenodd" d="M18.1499 9.99999C18.1499 5.49887 14.501 1.84999 9.99985 1.84999C5.49873 1.84999 1.84985 5.49887 1.84985 9.99999C1.84985 14.5011 5.49873 18.15 9.99985 18.15C14.501 18.15 18.1499 14.5011 18.1499 9.99999ZM9.99985 0.149994C15.4399 0.149994 19.8499 4.55999 19.8499 9.99999C19.8499 15.44 15.4399 19.85 9.99985 19.85C4.55985 19.85 0.149853 15.44 0.149853 9.99999C0.149853 4.55999 4.55985 0.149994 9.99985 0.149994Z" fill="#B3B0BC"/>
<path fill-rule="evenodd" clip-rule="evenodd" d="M9.99985 5.14999C10.4693 5.14999 10.8499 5.53055 10.8499 5.99999V14C10.8499 14.4694 10.4693 14.85 9.99985 14.85C9.53041 14.85 9.14985 14.4694 9.14985 14V5.99999C9.14985 5.53055 9.53041 5.14999 9.99985 5.14999Z" fill="#B3B0BC"/>
<path fill-rule="evenodd" clip-rule="evenodd" d="M5.1499 9.99999C5.1499 9.53055 5.53046 9.14999 5.9999 9.14999H13.9999C14.4693 9.14999 14.8499 9.53055 14.8499 9.99999C14.8499 10.4694 14.4693 10.85 13.9999 10.85H5.9999C5.53046 10.85 5.1499 10.4694 5.1499 9.99999Z" fill="#B3B0BC"/>
</svg>
